<svg width="24" height="24" viewBox="0 0 24 24" fill="none" xmlns="http://www.w3.org/2000/svg">
<path fill-rule="evenodd" clip-rule="evenodd" d="M14.4319 12.1145H15.7075C16.6119 12.1145 17.3452 11.3813 17.3452 10.4768V10.4768C17.3454 10.0423 17.173 9.62547 16.8658 9.31813C16.5587 9.01079 16.142 8.83811 15.7075 8.83811H15.1602V8.29689C15.1602 7.39187 14.4266 6.6582 13.5216 6.6582V6.6582C12.6171 6.6582 11.8839 7.39142 11.8839 8.29589V9.56641C11.8832 9.75407 11.8084 9.93386 11.6758 10.0666L9.757 11.9884C9.62412 12.1209 9.4444 12.1956 9.25679 12.1965H7.97826C7.07379 12.1965 6.34058 12.9297 6.34058 13.8342V13.8342C6.34031 14.2687 6.51274 14.6855 6.81989 14.9929C7.12704 15.3002 7.54375 15.4729 7.97826 15.4729H8.52549V16.0191C8.52549 16.9241 9.25915 17.6578 10.1642 17.6578V17.6578C11.0679 17.6567 11.7999 16.9238 11.7999 16.0201V14.7446C11.8005 14.5569 11.8753 14.3771 12.0079 14.2444L13.9267 12.3256C14.0604 12.1908 14.2422 12.1148 14.4319 12.1145Z" stroke="white" stroke-linecap="round" stroke-linejoin="round"/>
<circle cx="12" cy="11.9998" r="9.00375" stroke="white" stroke-linecap="round" stroke-linejoin="round"/>
</svg>
