<svg width="25" height="24" viewBox="0 0 25 24" fill="none" xmlns="http://www.w3.org/2000/svg">
<path fill-rule="evenodd" clip-rule="evenodd" d="M15.5756 6.41542L17.965 4.36811C18.421 3.97738 19.0627 3.88784 19.6083 4.13881C20.1538 4.38979 20.5034 4.93536 20.5034 5.53587V12.9988C20.5034 17.419 16.9202 21.0022 12.5 21.0022V21.0022C8.07992 21.0022 4.4967 17.419 4.4967 12.9988V5.53587C4.4967 4.93536 4.84626 4.38979 5.3918 4.13881C5.93735 3.88784 6.57908 3.97738 7.03509 4.36811L9.42444 6.41542C11.4145 5.71183 13.5856 5.71183 15.5756 6.41542Z" stroke="#FF430A" stroke-width="1.5" stroke-linecap="round" stroke-linejoin="round"/>
<path fill-rule="evenodd" clip-rule="evenodd" d="M12.5 14.4993V14.4993C12.2238 14.4993 11.9998 14.2753 11.9998 13.9991V13.9991C11.9998 13.907 12.0745 13.8323 12.1666 13.8323H12.8335C12.9256 13.8323 13.0002 13.907 13.0002 13.9991V13.9991C13.0002 14.2753 12.7763 14.4993 12.5 14.4993Z" stroke="#FF430A" stroke-width="1.5" stroke-linecap="round" stroke-linejoin="round"/>
<path d="M10.3123 17.1269C10.5524 17.3676 10.8785 17.5027 11.2185 17.5022V17.5022C11.9262 17.5022 12.5 16.9285 12.5 16.2207C12.5 16.739 12.8122 17.2063 13.2911 17.4047C13.77 17.603 14.3212 17.4934 14.6877 17.1269" stroke="#FF430A" stroke-width="1.5" stroke-linecap="round" stroke-linejoin="round"/>
<path d="M12.5 14.5002V16.2199" stroke="#FF430A" stroke-width="1.5" stroke-linecap="round" stroke-linejoin="round"/>
<path d="M17.5021 12.8061L21.5037 12.1392" stroke="#FF430A" stroke-width="1.5" stroke-linecap="round" stroke-linejoin="round"/>
<path d="M21.5037 16.0017L17.5021 15.3347" stroke="#FF430A" stroke-width="1.5" stroke-linecap="round" stroke-linejoin="round"/>
<path d="M7.49788 12.8061L3.49622 12.1392" stroke="#FF430A" stroke-width="1.5" stroke-linecap="round" stroke-linejoin="round"/>
<path d="M3.49622 16.0017L7.49788 15.3347" stroke="#FF430A" stroke-width="1.5" stroke-linecap="round" stroke-linejoin="round"/>
<path d="M8.81067 10.4127C9.36319 9.86015 10.259 9.86015 10.8115 10.4127" stroke="#FF430A" stroke-width="1.5" stroke-linecap="round" stroke-linejoin="round"/>
<path d="M14.1885 10.4127C14.741 9.86015 15.6368 9.86015 16.1893 10.4127" stroke="#FF430A" stroke-width="1.5" stroke-linecap="round" stroke-linejoin="round"/>
</svg>
