<svg width="25" height="24" viewBox="0 0 25 24" fill="none" xmlns="http://www.w3.org/2000/svg">
<path fill-rule="evenodd" clip-rule="evenodd" d="M15.5758 6.41542L17.9651 4.36811C18.4211 3.97738 19.0628 3.88784 19.6084 4.13881C20.1539 4.38979 20.5035 4.93536 20.5035 5.53587V12.9988C20.5035 17.419 16.9203 21.0022 12.5002 21.0022V21.0022C8.08004 21.0022 4.49683 17.419 4.49683 12.9988V5.53587C4.49683 4.93536 4.84638 4.38979 5.39193 4.13881C5.93748 3.88784 6.57921 3.97738 7.03521 4.36811L9.42456 6.41542C11.4146 5.71183 13.5857 5.71183 15.5758 6.41542Z" stroke="white" stroke-width="1.5" stroke-linecap="round" stroke-linejoin="round"/>
<path fill-rule="evenodd" clip-rule="evenodd" d="M12.5003 14.4993V14.4993C12.224 14.4993 12.0001 14.2753 12.0001 13.9991V13.9991C12.0001 13.907 12.0747 13.8323 12.1668 13.8323H12.8338C12.9258 13.8323 13.0005 13.907 13.0005 13.9991V13.9991C13.0005 14.2753 12.7765 14.4993 12.5003 14.4993Z" stroke="white" stroke-width="1.5" stroke-linecap="round" stroke-linejoin="round"/>
<path d="M10.3125 17.1269C10.5526 17.3676 10.8787 17.5027 11.2187 17.5022V17.5022C11.9265 17.5022 12.5002 16.9285 12.5002 16.2207C12.5002 16.739 12.8125 17.2063 13.2914 17.4047C13.7702 17.603 14.3214 17.4934 14.688 17.1269" stroke="white" stroke-width="1.5" stroke-linecap="round" stroke-linejoin="round"/>
<path d="M12.5002 14.5002V16.2199" stroke="white" stroke-width="1.5" stroke-linecap="round" stroke-linejoin="round"/>
<path d="M17.5022 12.8061L21.5039 12.1392" stroke="white" stroke-width="1.5" stroke-linecap="round" stroke-linejoin="round"/>
<path d="M21.5039 16.0017L17.5022 15.3347" stroke="white" stroke-width="1.5" stroke-linecap="round" stroke-linejoin="round"/>
<path d="M7.498 12.8061L3.49634 12.1392" stroke="white" stroke-width="1.5" stroke-linecap="round" stroke-linejoin="round"/>
<path d="M3.49634 16.0017L7.498 15.3347" stroke="white" stroke-width="1.5" stroke-linecap="round" stroke-linejoin="round"/>
<path d="M8.81079 10.4127C9.36331 9.86018 10.2591 9.86018 10.8116 10.4127" stroke="white" stroke-width="1.5" stroke-linecap="round" stroke-linejoin="round"/>
<path d="M14.1885 10.4127C14.741 9.86018 15.6368 9.86018 16.1893 10.4127" stroke="white" stroke-width="1.5" stroke-linecap="round" stroke-linejoin="round"/>
</svg>
