<svg width="34" height="34" viewBox="0 0 34 34" fill="none" xmlns="http://www.w3.org/2000/svg">
<path d="M20.575 7.5C22.0401 7.78585 23.3866 8.50239 24.4421 9.5579C25.4976 10.6134 26.2142 11.9599 26.5 13.425M20.575 1.5C23.6189 1.83815 26.4574 3.20126 28.6244 5.36551C30.7914 7.52976 32.158 10.3665 32.5 13.41M31 25.38V29.88C31.0017 30.2978 30.9161 30.7113 30.7488 31.094C30.5814 31.4768 30.336 31.8204 30.0281 32.1028C29.7203 32.3852 29.3569 32.6002 28.9611 32.7341C28.5654 32.8679 28.1461 32.9176 27.73 32.88C23.1143 32.3785 18.6805 30.8012 14.785 28.275C11.1608 25.972 8.08803 22.8993 5.78502 19.275C3.24999 15.3618 1.67239 10.9065 1.18002 6.27C1.14254 5.8552 1.19183 5.43714 1.32477 5.04244C1.45771 4.64773 1.67138 4.28503 1.95217 3.97743C2.23296 3.66983 2.57473 3.42406 2.95571 3.25578C3.33669 3.0875 3.74853 3.00039 4.16502 3H8.66502C9.39298 2.99284 10.0987 3.25062 10.6507 3.7253C11.2026 4.19998 11.5631 4.85917 11.665 5.58C11.855 7.0201 12.2072 8.43409 12.715 9.795C12.9168 10.3319 12.9605 10.9154 12.8409 11.4763C12.7212 12.0373 12.4433 12.5522 12.04 12.96L10.135 14.865C12.2704 18.6203 15.3797 21.7297 19.135 23.865L21.04 21.96C21.4479 21.5567 21.9628 21.2788 22.5237 21.1591C23.0846 21.0395 23.6681 21.0832 24.205 21.285C25.5659 21.7928 26.9799 22.1451 28.42 22.335C29.1487 22.4378 29.8141 22.8048 30.2898 23.3662C30.7655 23.9277 31.0183 24.6444 31 25.38Z" stroke="black" stroke-width="2" stroke-linecap="round" stroke-linejoin="round"/>
</svg>
