<svg width="25" height="24" viewBox="0 0 25 24" fill="none" xmlns="http://www.w3.org/2000/svg">
<path d="M8.54949 17.8477L7.49792 21.0024" stroke="#FF430A" stroke-width="1.5" stroke-linecap="round" stroke-linejoin="round"/>
<path d="M16.4506 17.8477L17.5021 21.0024" stroke="#FF430A" stroke-width="1.5" stroke-linecap="round" stroke-linejoin="round"/>
<path d="M11.4996 13.0002H13.5005" stroke="#FF430A" stroke-width="1.5" stroke-linecap="round" stroke-linejoin="round"/>
<path d="M8.49829 4.99655C9.36211 4.34331 10.4165 3.99183 11.4995 3.99613H13.5004C14.5834 3.99183 15.6378 4.34331 16.5016 4.99655" stroke="#FF430A" stroke-width="1.5" stroke-linecap="round" stroke-linejoin="round"/>
<path d="M6.59748 7.99805C6.52856 8.327 6.49503 8.66238 6.49744 8.99846V15.001C6.49744 16.6585 7.84114 18.0022 9.49869 18.0022H10.4991C11.6041 18.0022 12.4999 17.1064 12.4999 16.0014C12.4999 17.1064 13.3957 18.0022 14.5008 18.0022H15.5012C17.1587 18.0022 18.5024 16.6585 18.5024 15.001V8.99846C18.5048 8.66238 18.4713 8.327 18.4024 7.99805" stroke="#FF430A" stroke-width="1.5" stroke-linecap="round" stroke-linejoin="round"/>
<path fill-rule="evenodd" clip-rule="evenodd" d="M5.49712 2.99609H7.49795C8.05047 2.99609 8.49837 3.444 8.49837 3.99651V5.99734C8.49837 7.10237 7.60257 7.99818 6.49754 7.99818V7.99818C5.39251 7.99818 4.4967 7.10237 4.4967 5.99734V3.99651C4.4967 3.444 4.94461 2.99609 5.49712 2.99609Z" stroke="#FF430A" stroke-width="1.5" stroke-linecap="round" stroke-linejoin="round"/>
<path fill-rule="evenodd" clip-rule="evenodd" d="M17.5021 2.99609H19.503C20.0555 2.99609 20.5034 3.444 20.5034 3.99651V5.99734C20.5034 7.10237 19.6076 7.99818 18.5025 7.99818V7.99818C17.3975 7.99818 16.5017 7.10237 16.5017 5.99734V3.99651C16.5017 3.444 16.9496 2.99609 17.5021 2.99609Z" stroke="#FF430A" stroke-width="1.5" stroke-linecap="round" stroke-linejoin="round"/>
<path d="M14.5008 18.002V19.0024C14.5008 19.8311 13.829 20.503 13.0002 20.503H11.9998C11.171 20.503 10.4991 19.8311 10.4991 19.0024V18.002" stroke="#FF430A" stroke-width="1.5" stroke-linecap="round" stroke-linejoin="round"/>
<path d="M12.5 13V16.0013" stroke="#FF430A" stroke-width="1.5" stroke-linecap="round" stroke-linejoin="round"/>
<path d="M14.7512 9.49839C14.7511 9.63644 14.6391 9.74824 14.501 9.74818C14.363 9.74812 14.2511 9.63622 14.251 9.49818C14.251 9.36013 14.3628 9.24814 14.5008 9.24797C14.5672 9.24788 14.631 9.27424 14.678 9.32122C14.725 9.3682 14.7513 9.43195 14.7512 9.49839" stroke="#FF430A" stroke-width="1.5" stroke-linecap="round" stroke-linejoin="round"/>
<path d="M10.7496 9.49839C10.7494 9.63644 10.6374 9.74824 10.4994 9.74818C10.3613 9.74812 10.2494 9.63622 10.2494 9.49818C10.2493 9.36013 10.3611 9.24814 10.4992 9.24797C10.5656 9.24788 10.6293 9.27424 10.6763 9.32122C10.7233 9.3682 10.7497 9.43195 10.7496 9.49839" stroke="#FF430A" stroke-width="1.5" stroke-linecap="round" stroke-linejoin="round"/>
</svg>
