<svg width="30" height="24" viewBox="0 0 30 24" fill="none" xmlns="http://www.w3.org/2000/svg">
<path fill-rule="evenodd" clip-rule="evenodd" d="M1.5 4.2V4.2C1.5 5.1 1.95 5.85 2.7 6.45L11.7 12.6C13.8 13.95 16.35 13.95 18.45 12.6L27.45 6.6C28.05 5.85 28.5 5.1 28.5 4.2V4.2C28.5 2.7 27.3 1.5 25.8 1.5H4.2C2.7 1.5 1.5 2.7 1.5 4.2Z" stroke="black" stroke-width="1.5" stroke-linecap="round" stroke-linejoin="round"/>
<path d="M1.5 4.5V19.5C1.5 21.15 2.85 22.5 4.5 22.5H25.5C27.15 22.5 28.5 21.15 28.5 19.5V4.5" stroke="black" stroke-width="1.5" stroke-linecap="round" stroke-linejoin="round"/>
<path d="M2.38202 21.6185L11.523 12.4775" stroke="black" stroke-width="1.5" stroke-linecap="round" stroke-linejoin="round"/>
<path d="M18.54 12.5391L27.618 21.6171" stroke="black" stroke-width="1.5" stroke-linecap="round" stroke-linejoin="round"/>
</svg>
