<svg width="24" height="24" viewBox="0 0 24 24" fill="none" xmlns="http://www.w3.org/2000/svg">
<path d="M20.7447 10.9987C20.911 10.3891 20.9981 9.76053 21.0039 9.12863C21.0282 7.76071 20.4958 6.44161 19.5287 5.47382C18.5617 4.50603 17.243 3.97259 15.8751 3.99581C14.3447 3.9555 12.8937 4.67545 12.0002 5.91842C11.1066 4.67545 9.65556 3.9555 8.12525 3.99581C6.75731 3.97259 5.43863 4.50603 4.47159 5.47382C3.50455 6.44161 2.97212 7.76071 2.9964 9.12863C3.10554 11.381 4.0036 13.5232 5.53329 15.18C6.75507 16.5991 8.21291 17.7964 9.84245 18.719C10.2041 18.9229 10.5942 19.0715 10.9997 19.1601" stroke="#F9FAFB" stroke-width="1.5" stroke-linecap="round" stroke-linejoin="round"/>
<path fill-rule="evenodd" clip-rule="evenodd" d="M17.7522 17.002V17.002C19.4098 17.002 20.7535 18.3457 20.7535 20.0032V20.0032C20.7535 20.5557 20.3056 21.0036 19.7531 21.0036H15.7514C15.1989 21.0036 14.751 20.5557 14.751 20.0032V20.0032C14.751 18.3457 16.0947 17.002 17.7522 17.002Z" stroke="#F9FAFB" stroke-width="1.5" stroke-linecap="round" stroke-linejoin="round"/>
<path d="M18.0025 14.0003C18.0023 14.1383 17.8904 14.2501 17.7523 14.2501C17.6143 14.25 17.5024 14.1381 17.5023 14.0001C17.5022 13.862 17.614 13.7501 17.7521 13.7499C17.8185 13.7498 17.8823 13.7761 17.9293 13.8231C17.9762 13.8701 18.0026 13.9338 18.0025 14.0003" stroke="#F9FAFB" stroke-width="1.5" stroke-linecap="round" stroke-linejoin="round"/>
<path d="M21.004 15.0007C21.0038 15.1388 20.8918 15.2506 20.7538 15.2505C20.6157 15.2505 20.5038 15.1386 20.5038 15.0005C20.5037 14.8625 20.6155 14.7505 20.7536 14.7503C20.82 14.7502 20.8837 14.7766 20.9307 14.8236C20.9777 14.8705 21.0041 14.9343 21.004 15.0007" stroke="#F9FAFB" stroke-width="1.5" stroke-linecap="round" stroke-linejoin="round"/>
<path d="M15.0013 15.0007C15.0011 15.1388 14.8891 15.2506 14.7511 15.2505C14.613 15.2505 14.5011 15.1386 14.5011 15.0005C14.501 14.8625 14.6128 14.7505 14.7509 14.7503C14.8173 14.7502 14.881 14.7766 14.928 14.8236C14.975 14.8705 15.0014 14.9343 15.0013 15.0007" stroke="#F9FAFB" stroke-width="1.5" stroke-linecap="round" stroke-linejoin="round"/>
</svg>
