<svg width="30" height="30" viewBox="0 0 30 30" fill="none" xmlns="http://www.w3.org/2000/svg">
<path d="M18.0012 21.0229V27.7562C18.0012 28.1704 18.3224 28.5066 18.72 28.5066H26.2877C26.6838 28.5066 27.005 28.1704 27.005 27.7562V20.9824" stroke="black" stroke-width="1.5" stroke-linecap="round" stroke-linejoin="round"/>
<path d="M16.5005 22.0022L22.6261 18L28.5055 22.0022" stroke="black" stroke-width="1.5" stroke-linecap="round" stroke-linejoin="round"/>
<path fill-rule="evenodd" clip-rule="evenodd" d="M12.683 16.2998C14.7409 16.2998 16.4091 14.6315 16.4091 12.5737C16.4091 10.5159 14.7409 8.84766 12.683 8.84766C10.6252 8.84766 8.95697 10.5159 8.95697 12.5737C8.95697 14.6315 10.6252 16.2998 12.683 16.2998Z" stroke="black" stroke-width="1.5" stroke-linecap="round" stroke-linejoin="round"/>
<path d="M23.8371 13.3851C24.0322 10.2923 22.9578 7.13499 20.5943 4.77151C16.2245 0.401686 9.14151 0.401686 4.77169 4.77151C0.401869 9.14133 0.401869 16.2243 4.77169 20.5941L12.683 28.5054" stroke="black" stroke-width="1.5" stroke-linecap="round" stroke-linejoin="round"/>
</svg>
