<svg width="20" height="21" viewBox="0 0 20 21" fill="none" xmlns="http://www.w3.org/2000/svg">
<path d="M7.5 8C8.575 8 9.58333 8.34167 10.3917 8.925L14.65 4.66667H11.6667C11.2064 4.66667 10.8333 4.29357 10.8333 3.83333C10.8333 3.3731 11.2064 3 11.6667 3H16.5C17.0523 3 17.5 3.44772 17.5 4V8.83333C17.5 9.29357 17.1269 9.66667 16.6667 9.66667C16.2064 9.66667 15.8333 9.29357 15.8333 8.83333V5.84167L11.575 10.0833C12.1583 10.9167 12.5 11.9167 12.5 13C12.5 14.3261 11.9732 15.5979 11.0355 16.5355C10.0979 17.4732 8.82608 18 7.5 18C6.17392 18 4.90215 17.4732 3.96447 16.5355C3.02678 15.5979 2.5 14.3261 2.5 13C2.5 11.6739 3.02678 10.4021 3.96447 9.46447C4.90215 8.52678 6.17392 8 7.5 8ZM7.5 9.66667C6.61595 9.66667 5.7681 10.0179 5.14298 10.643C4.51786 11.2681 4.16667 12.1159 4.16667 13C4.16667 13.8841 4.51786 14.7319 5.14298 15.357C5.7681 15.9821 6.61595 16.3333 7.5 16.3333C8.38406 16.3333 9.2319 15.9821 9.85702 15.357C10.4821 14.7319 10.8333 13.8841 10.8333 13C10.8333 12.1159 10.4821 11.2681 9.85702 10.643C9.2319 10.0179 8.38406 9.66667 7.5 9.66667Z" fill="#36BFFA"/>
</svg>
