<svg width="20" height="21" viewBox="0 0 20 21" fill="none" xmlns="http://www.w3.org/2000/svg">
<path d="M9.99998 3.83831C11.0879 3.83673 12.1333 4.26073 12.9128 5.01969C13.6922 5.77864 14.1439 6.81236 14.1713 7.89994C14.1988 8.98752 13.7997 10.0427 13.0595 10.84C12.3193 11.6372 11.2966 12.1134 10.21 12.1666H9.78998C8.70336 12.1134 7.68066 11.6372 6.94044 10.84C6.20022 10.0427 5.80119 8.98752 5.82861 7.89994C5.85603 6.81236 6.30774 5.77864 7.0872 5.01969C7.86666 4.26073 8.91206 3.83673 9.99998 3.83831ZM10.8333 13.78C12.2908 13.5664 13.6135 12.8095 14.5361 11.6612C15.4587 10.5128 15.9128 9.05807 15.8074 7.58882C15.7019 6.11957 15.0446 4.74458 13.9675 3.73981C12.8903 2.73503 11.473 2.17483 9.99998 2.17164C8.52337 2.16898 7.1007 2.72641 6.01894 3.73148C4.93719 4.73655 4.27684 6.11446 4.17111 7.58728C4.06538 9.06009 4.52214 10.5182 5.44924 11.6675C6.37634 12.8168 7.7048 13.5717 9.16664 13.78V14.6666H7.49998C7.03974 14.6666 6.66664 15.0397 6.66664 15.5C6.66664 15.9602 7.03974 16.3333 7.49998 16.3333H9.16664V18C9.16664 18.4602 9.53974 18.8333 9.99998 18.8333C10.4602 18.8333 10.8333 18.4602 10.8333 18V16.3333H12.5C12.9602 16.3333 13.3333 15.9602 13.3333 15.5C13.3333 15.0397 12.9602 14.6666 12.5 14.6666H10.8333V13.78Z" fill="#F670C7"/>
</svg>
