<svg xmlns="http://www.w3.org/2000/svg" width="16" height="15" viewBox="0 0 16 15" fill="none">
<path d="M5.5 5C6.575 5 7.58333 5.34167 8.39167 5.925L12.65 1.66667H9.66667C9.20643 1.66667 8.83333 1.29357 8.83333 0.833333C8.83333 0.373096 9.20643 0 9.66667 0H14.5C15.0523 0 15.5 0.447715 15.5 1V5.83333C15.5 6.29357 15.1269 6.66667 14.6667 6.66667C14.2064 6.66667 13.8333 6.29357 13.8333 5.83333V2.84167L9.575 7.08333C10.1583 7.91667 10.5 8.91667 10.5 10C10.5 11.3261 9.97322 12.5979 9.03553 13.5355C8.09785 14.4732 6.82608 15 5.5 15C4.17392 15 2.90215 14.4732 1.96447 13.5355C1.02678 12.5979 0.5 11.3261 0.5 10C0.5 8.67392 1.02678 7.40215 1.96447 6.46447C2.90215 5.52678 4.17392 5 5.5 5ZM5.5 6.66667C4.61595 6.66667 3.7681 7.01786 3.14298 7.64298C2.51786 8.2681 2.16667 9.11595 2.16667 10C2.16667 10.8841 2.51786 11.7319 3.14298 12.357C3.7681 12.9821 4.61595 13.3333 5.5 13.3333C6.38406 13.3333 7.2319 12.9821 7.85702 12.357C8.48214 11.7319 8.83333 10.8841 8.83333 10C8.83333 9.11595 8.48214 8.2681 7.85702 7.64298C7.2319 7.01786 6.38406 6.66667 5.5 6.66667Z" fill="#f53900"/>
</svg>